<svg width="120" height="120" viewBox="0 0 120 120" fill="none" xmlns="http://www.w3.org/2000/svg">
<path d="M108.75 0H11.25C5.03719 0 0 5.03719 0 11.25V108.75C0 114.963 5.03719 120 11.25 120H108.75C114.963 120 120 114.963 120 108.75V11.25C120 5.03719 114.963 0 108.75 0ZM104.218 8.20312C106.677 8.20312 108.671 10.1972 108.671 12.6562C108.671 15.1153 106.677 17.1094 104.218 17.1094C101.759 17.1094 99.765 15.1153 99.765 12.6562C99.765 10.1972 101.759 8.20312 104.218 8.20312ZM87.6947 8.20312C90.1538 8.20312 92.1478 10.1972 92.1478 12.6562C92.1478 15.1153 90.1538 17.1094 87.6947 17.1094C85.2356 17.1094 83.2416 15.1153 83.2416 12.6562C83.2416 10.1972 85.2356 8.20312 87.6947 8.20312ZM71.1713 8.20312C73.6303 8.20312 75.6244 10.1972 75.6244 12.6562C75.6244 15.1153 73.6303 17.1094 71.1713 17.1094C68.7122 17.1094 66.7181 15.1153 66.7181 12.6562C66.7181 10.1972 68.7122 8.20312 71.1713 8.20312ZM110.625 108.75C110.625 109.783 109.785 110.625 108.75 110.625H11.25C10.2155 110.625 9.375 109.783 9.375 108.75V24.375H110.625V108.75Z" fill="white"/>
<path d="M58.125 45H22.5V52.5H58.125V45Z" fill="white"/>
<path d="M99.375 82.5H22.5V90H99.375V82.5Z" fill="white"/>
<path d="M99.375 45H71.25V73.125H99.375V45Z" fill="white"/>
<path d="M53.6817 71.25H58.125V63.75H22.5V71.25H49.9317H53.6817Z" fill="white"/>
</svg>
