<svg width="331" height="145" viewBox="0 0 331 145" fill="none" xmlns="http://www.w3.org/2000/svg">
<rect width="331" height="145" fill="#365486"/>
<path d="M56.6521 78.64C58.9386 79.8264 61.2466 80.7216 63.5762 81.3256C65.9059 81.9296 67.9659 82.2315 69.7562 82.2315C71.5682 82.2315 72.884 81.9511 73.7036 81.3903C74.5449 80.8079 74.9655 80.0313 74.9655 79.0607C74.9655 78.4783 74.8037 77.9714 74.4802 77.5399C74.1351 77.1085 73.6389 76.6879 72.9918 76.2781C72.3663 75.8466 70.5436 74.9407 67.5237 73.5602C64.5038 72.1796 62.3359 70.9285 61.0201 69.8069C58.3022 67.4772 56.9433 64.3279 56.9433 60.3589C56.9433 56.39 58.3669 53.3054 61.2143 51.1052C64.0832 48.905 68.009 47.8049 72.9918 47.8049C77.3707 47.8049 81.8681 48.8295 86.4842 50.8787L82.9574 59.7442C78.9884 57.9323 75.5479 57.0263 72.6359 57.0263C71.2122 57.0263 70.1445 57.2743 69.4327 57.7705C68.7208 58.2666 68.3649 58.9353 68.3649 59.7765C68.3649 60.5962 68.7963 61.3404 69.6592 62.0091C70.5436 62.6778 72.8516 63.8642 76.5833 65.5683C80.315 67.2508 82.8927 69.0411 84.3164 70.9393C85.7616 72.7944 86.4842 75.1672 86.4842 78.0576C86.5274 82.0698 85.0066 85.3377 81.922 87.8615C78.859 90.3852 74.8145 91.6255 69.7886 91.5824C66.9197 91.5824 64.5038 91.3775 62.5409 90.9676C60.5995 90.5362 58.6366 89.846 56.6521 88.8969V78.64ZM105.488 79.3842C105.488 81.5197 106.513 82.5875 108.562 82.5875C110.072 82.5875 111.905 82.21 114.062 81.455V89.7381C112.66 90.3637 111.237 90.8274 109.791 91.1294C108.368 91.4314 106.707 91.5824 104.808 91.5824C101.034 91.5824 98.2834 90.6549 96.5577 88.7998C94.8537 86.9447 94.0016 84.0543 94.0016 80.1284V66.5389H90.0218V61.912L95.0694 58.3205L98.0137 51.3964H105.488V57.997H113.577V66.5389H105.488V79.3842ZM139.914 70.4216C139.893 68.8254 139.451 67.5527 138.588 66.6036C137.725 65.6545 136.571 65.18 135.126 65.18C133.702 65.18 132.548 65.6222 131.664 66.5066C130.801 67.3694 130.294 68.6744 130.143 70.4216H139.914ZM135.773 91.5824C130.272 91.5824 126.001 90.1264 122.96 87.2144C119.918 84.2592 118.398 80.0421 118.398 74.5632C118.398 69.0843 119.8 64.8564 122.604 61.8797C125.408 58.9029 129.366 57.4146 134.479 57.4146C139.591 57.4146 143.495 58.7196 146.191 61.3296C148.909 63.9397 150.268 67.6714 150.268 72.5248V77.5723H129.916C129.981 79.4274 130.65 80.8834 131.922 81.9403C133.195 82.9757 134.867 83.4934 136.938 83.4934C139.03 83.4934 140.928 83.3101 142.632 82.9434C144.336 82.5551 146.159 81.8972 148.1 80.9697V89.1557C146.375 90.0617 144.552 90.6872 142.632 91.0324C140.734 91.3991 138.448 91.5824 135.773 91.5824ZM176.628 57.4146C177.361 57.4146 178.515 57.5332 180.09 57.7705L179.087 68.5126C178.094 68.2754 176.8 68.1567 175.204 68.1567C170.458 68.1567 168.086 70.3677 168.086 74.7897V91H156.696V57.997H165.174L166.953 63.271H167.503C168.452 61.5022 169.779 60.0893 171.483 59.0324C173.209 57.9538 174.923 57.4146 176.628 57.4146ZM196.15 57.997V91H184.761V57.997H196.15ZM196.603 49.8109C196.603 53.1328 194.576 54.7937 190.52 54.7937C186.487 54.7937 184.47 53.1328 184.47 49.8109C184.47 48.0637 184.944 46.7802 185.893 45.9606C186.864 45.1409 188.396 44.731 190.488 44.731C192.602 44.731 194.144 45.1517 195.115 45.9929C196.107 46.8342 196.603 48.1068 196.603 49.8109ZM233.483 91H225.62L223.42 86.632H223.194C221.705 88.5086 220.141 89.8028 218.502 90.5147C216.884 91.2265 214.824 91.5824 212.322 91.5824C209.194 91.5824 206.746 90.6441 204.977 88.7674C203.208 86.8908 202.324 84.2808 202.324 80.9373C202.324 74.1641 207.08 70.5834 216.593 70.1951L222.126 70.001V69.548C222.126 66.8301 220.778 65.4712 218.081 65.4712C215.709 65.4712 212.656 66.2801 208.925 67.8979L205.624 60.3913C209.486 58.4068 214.339 57.4146 220.185 57.4146C224.412 57.4146 227.68 58.4715 229.988 60.5854C232.318 62.6994 233.483 65.6222 233.483 69.3539V91ZM213.94 80.5167C213.94 82.5443 215.018 83.5581 217.175 83.5581C218.556 83.5581 219.732 83.1267 220.702 82.2639C221.673 81.4011 222.158 80.2578 222.158 78.8342V76.2781L219.537 76.3751C215.806 76.5477 213.94 77.9282 213.94 80.5167ZM270.608 59.8736C266.876 58.1264 263.63 57.2528 260.869 57.2528C258.108 57.2528 255.961 58.3745 254.43 60.6178C252.898 62.8611 252.133 65.9565 252.133 69.9039C252.133 78.0792 255.25 82.1668 261.483 82.1668C264.331 82.1668 267.933 81.2824 272.29 79.5136V89.2204C268.753 90.7951 264.73 91.5824 260.222 91.5824C253.794 91.5824 248.865 89.7165 245.435 85.9848C242.027 82.2531 240.323 76.8713 240.323 69.8392C240.28 65.4604 241.088 61.5993 242.749 58.2558C244.432 54.8908 246.848 52.3023 249.997 50.4904C253.146 48.6569 256.803 47.7617 260.966 47.8049C265.582 47.8049 269.972 48.8079 274.135 50.814L270.608 59.8736Z" fill="white"/>
</svg>
