<svg width="120" height="120" viewBox="0 0 120 120" fill="none" xmlns="http://www.w3.org/2000/svg">
<path d="M110.006 0H9.99488C4.48353 0 0 5.12354 0 11.4212V85.9027C0 92.2004 4.48353 97.3239 9.99488 97.3239H42.2187L36.1026 112.735C35.4711 114.326 35.5899 116.175 36.4185 117.644C37.2471 119.113 38.6715 120 40.2006 120H79.7997C79.8015 120 79.8039 120 79.8057 120C82.2912 120 84.3057 117.698 84.3057 114.858C84.3057 114.003 84.1242 113.196 83.7999 112.487L77.7813 97.3239H110.005C115.516 97.3239 120 92.2004 120 85.9027V11.4212C120.001 5.12354 115.517 0 110.006 0ZM111.001 85.9031C111.001 86.5301 110.554 87.0398 110.006 87.0398H9.99488C9.44647 87.0398 9.00007 86.5301 9.00007 85.9031V11.4212C9.00007 10.7942 9.44647 10.2841 9.99488 10.2841H110.006C110.554 10.2841 111.001 10.7942 111.001 11.4212L111.001 85.9031Z" fill="black"/>
<path d="M73.86 24.4978C73.5429 24.1358 72.9837 24.1892 72.6101 24.6157L67.7282 30.1934C67.3541 30.6209 67.3082 31.2616 67.6238 31.6233L74.5548 39.5431C74.7123 39.7234 74.9331 39.8005 75.1587 39.7789C75.3855 39.7573 75.6177 39.6373 75.8058 39.4231L80.6871 33.845C81.0603 33.4182 81.1071 32.7785 80.79 32.4169L73.86 24.4978Z" fill="black"/>
<path d="M43.9011 59.1716C43.6959 58.9371 43.3767 58.8693 43.0638 58.9923C42.7512 59.1154 42.4932 59.4126 42.3867 59.7708L39.0513 71.0607C38.9454 71.4162 39.0069 71.7768 39.2109 72.0096C39.3645 72.1868 39.5829 72.2698 39.8142 72.2472C39.8886 72.24 39.9651 72.2221 40.041 72.1923L49.9213 68.3803C50.2345 68.259 50.4949 67.9638 50.6023 67.607C50.7109 67.2501 50.6509 66.8847 50.446 66.6499L43.9011 59.1716Z" fill="black"/>
<path d="M68.8517 53.9082C69.287 53.6812 69.6047 53.2346 69.7094 52.7018C69.8144 52.1688 69.6953 51.61 69.3881 51.1918C68.8121 50.4092 68.2094 49.6135 67.589 48.8124L73.0125 42.6155C73.1913 42.4109 73.3041 42.1442 73.3224 41.8761C73.3419 41.6091 73.2669 41.3602 73.1157 41.1871L66.1844 33.268C65.8676 32.9053 65.3084 32.9584 64.9346 33.3859L59.6455 39.4305C56.0983 35.5881 52.5358 32.16 49.396 29.5811C47.1853 27.7656 43.1409 24.7137 40.8894 24.6746C40.4784 24.6664 40.0809 24.8501 39.789 25.1816C39.4962 25.5127 39.3333 25.9649 39.3366 26.4352C39.3483 28.1883 40.695 31.3514 43.1283 35.3402C45.4443 39.1368 48.6262 43.4996 52.2562 47.8741L45.3561 55.7593C44.9817 56.1868 44.9352 56.8258 45.2523 57.1874L52.1833 65.1065C52.3408 65.2885 52.5595 65.3653 52.7866 65.3434C53.0122 65.3218 53.2465 65.2015 53.4331 64.9886L60.467 56.9509C61.0811 57.5717 61.6901 58.175 62.2907 58.7568C62.5694 59.0266 62.9198 59.1712 63.2795 59.1712C63.3608 59.1712 63.4424 59.1637 63.524 59.1489C63.9653 59.067 64.3535 58.7688 64.5857 58.332C64.9961 57.5614 65.5307 56.7966 66.176 56.0606C66.9848 55.1347 67.8857 54.4104 68.8517 53.9082Z" fill="black"/>
<path d="M72.6881 55.3708C70.9067 55.3708 69.2063 56.2385 67.7693 57.8802C66.0449 59.8506 65.2922 61.9174 65.5922 63.858C65.8901 65.779 67.226 67.5009 69.2582 68.5787C71.0063 69.5067 72.5996 69.7943 74.0045 70.0483C75.4842 70.315 76.8801 70.568 78.1224 71.5309C78.3795 71.7315 78.6801 71.8333 78.9816 71.8333C79.1934 71.8333 79.4061 71.7832 79.6053 71.6811C80.0892 71.4346 80.4273 70.9184 80.4984 70.3178C81.0309 65.7787 80.2689 61.7021 78.3528 58.8421C76.8741 56.6361 74.8095 55.3708 72.6881 55.3708Z" fill="black"/>
</svg>
